<?xml version="1.0" encoding="iso-8859-1"?>
<!-- Generator: Adobe Illustrator 26.3.1, SVG Export Plug-In . SVG Version: 6.00 Build 0)  -->
<svg version="1.1" xmlns="http://www.w3.org/2000/svg" xmlns:xlink="http://www.w3.org/1999/xlink" x="0px" y="0px"
	 viewBox="0 0 340.157 340.157" style="enable-background:new 0 0 340.157 340.157;" xml:space="preserve">
<g id="&#x53C3;&#x8003;&#x7DDA;">
</g>
<g id="&#x88C1;&#x5207;&#x6A19;&#x8A18;">
	<path d="M170.079,99.213c-75.804,0-138.369,56.676-147.635,129.965c6.439-1.559,13.157-2.406,20.076-2.406
		c15.495,0,30.008,4.165,42.519,11.405c12.511-7.24,27.025-11.405,42.52-11.405c15.495,0,30.009,4.165,42.52,11.405
		c12.511-7.24,27.025-11.405,42.52-11.405c15.494,0,30.006,4.164,42.517,11.403c12.512-7.241,27.026-11.407,42.522-11.407
		c6.918,0,13.636,0.846,20.075,2.406C308.445,155.887,245.881,99.213,170.079,99.213z"/>
</g>
</svg>
